<?xml version="1.0" standalone="no"?>
<!DOCTYPE svg PUBLIC "-//W3C//DTD SVG 20010904//EN"
 "http://www.w3.org/TR/2001/REC-SVG-20010904/DTD/svg10.dtd">
<svg version="1.0" xmlns="http://www.w3.org/2000/svg"
 width="4000.000000pt" height="2901.000000pt" viewBox="0 0 4000.000000 2901.000000"
 preserveAspectRatio="xMidYMid meet">

<g transform="translate(0.000000,2901.000000) scale(0.100000,-0.100000)"
fill="#000000" stroke="none">
<path d="M0 14505 l0 -14505 20000 0 20000 0 0 14505 0 14505 -20000 0 -20000
0 0 -14505z m20870 3838 c-105 -339 -924 -2930 -927 -2936 -6 -9 -89 68 -441
411 l-280 272 -2688 -2675 c-1478 -1472 -2693 -2674 -2699 -2671 -10 4 -1814
1238 -5954 4075 l-704 482 -41 -29 c-23 -16 -945 -669 -2051 -1452 -1105 -783
-2057 -1456 -2115 -1497 l-105 -75 95 95 c159 159 4154 3989 4167 3994 7 3
799 -534 1760 -1193 961 -659 2447 -1676 3301 -2261 l1553 -1064 952 945 c524
520 1621 1613 2439 2428 l1488 1483 -198 189 c-302 290 -502 489 -497 494 4 5
2945 1040 2956 1041 4 1 -1 -25 -11 -56z m-14395 -8413 c218 -31 365 -100 497
-232 61 -61 86 -96 122 -170 75 -151 89 -222 90 -433 0 -159 -3 -197 -28 -322
l-28 -143 -233 0 -232 0 -6 203 c-6 216 -20 303 -64 414 -29 72 -98 155 -153
183 -85 44 -251 45 -334 4 -41 -21 -104 -81 -123 -119 -60 -114 -55 -329 11
-478 42 -95 115 -192 471 -622 379 -458 437 -531 517 -661 182 -294 245 -505
235 -784 -6 -178 -27 -265 -98 -410 -46 -93 -64 -116 -148 -200 -75 -75 -114
-105 -179 -139 -159 -82 -275 -111 -477 -118 -426 -16 -730 128 -871 412 -67
135 -88 242 -88 445 1 157 9 231 44 398 l12 52 234 0 234 0 0 -139 c0 -344 46
-530 155 -629 66 -61 129 -82 239 -82 158 0 246 47 306 164 l35 69 0 161 c-1
153 -2 165 -31 247 -64 180 -118 256 -527 743 -366 434 -398 474 -465 582
-167 270 -231 491 -219 763 7 146 22 225 64 329 111 279 330 450 647 507 86
16 296 18 391 5z m4556 -14 c316 -72 517 -259 597 -555 22 -84 25 -117 26
-261 1 -143 -3 -185 -28 -317 l-30 -153 -231 0 -232 0 -6 198 c-8 252 -36 386
-102 492 -70 111 -203 163 -352 140 -174 -28 -263 -147 -263 -349 0 -159 42
-286 136 -418 25 -36 207 -259 403 -496 448 -543 519 -641 625 -868 85 -182
111 -304 110 -519 0 -203 -20 -295 -96 -450 -46 -93 -63 -116 -147 -200 -172
-170 -360 -245 -647 -257 -362 -15 -640 85 -805 291 -62 77 -104 165 -136 283
-23 87 -26 118 -27 273 -1 170 7 248 40 393 l16 67 234 0 234 0 0 -157 c0
-394 66 -585 229 -665 40 -20 61 -23 166 -23 107 0 125 3 169 24 135 67 183
178 173 395 -8 161 -35 252 -113 386 -63 108 -133 198 -478 608 -354 421 -426
517 -511 683 -102 199 -145 372 -145 579 0 332 131 601 368 754 111 72 199
104 392 140 52 10 366 -3 431 -18z m2159 9 c325 -49 547 -224 640 -504 60
-181 65 -398 15 -653 l-27 -138 -233 0 -232 0 -6 203 c-6 216 -20 303 -64 414
-29 72 -98 155 -153 183 -88 45 -251 45 -339 0 -134 -68 -190 -249 -145 -467
34 -166 66 -213 509 -748 379 -457 436 -531 517 -661 182 -294 245 -505 235
-784 -11 -307 -117 -529 -328 -687 -152 -115 -332 -171 -574 -180 -512 -19
-844 193 -937 597 -17 77 -21 127 -21 260 0 156 8 234 43 398 l12 52 234 0
234 0 0 -139 c0 -345 48 -533 161 -635 60 -54 127 -76 233 -76 158 0 246 47
306 164 34 66 35 74 38 195 6 207 -33 335 -158 523 -37 57 -218 281 -401 498
-364 432 -430 517 -503 645 -140 246 -195 459 -183 715 7 151 32 253 90 375
120 247 326 397 621 450 97 18 301 18 416 0z m2397 -14 c426 -106 647 -467
683 -1116 13 -223 12 -1503 0 -1718 -12 -203 -31 -326 -75 -472 -85 -280 -205
-450 -408 -575 -286 -176 -751 -171 -1030 13 -217 143 -346 377 -419 757 -21
112 -21 140 -25 1050 -4 976 -2 1070 38 1269 83 414 275 667 585 770 124 42
200 50 399 46 129 -3 190 -8 252 -24z m2300 18 c96 -13 224 -56 301 -100 31
-19 89 -66 128 -105 200 -199 257 -541 173 -1031 l-11 -63 -244 0 -244 0 0
119 c0 522 -100 748 -321 728 -152 -14 -227 -104 -276 -329 -17 -77 -18 -164
-18 -1253 0 -1070 1 -1177 17 -1247 32 -144 72 -210 151 -254 47 -26 61 -29
143 -29 83 0 94 2 139 30 57 36 104 100 136 187 21 58 23 85 28 343 l6 280
275 0 275 0 -1 -256 c-1 -141 -7 -294 -13 -340 -47 -328 -209 -552 -468 -646
-123 -45 -198 -56 -368 -56 -178 0 -267 14 -383 62 -351 145 -536 496 -572
1085 -13 210 -13 1543 0 1756 24 392 121 689 283 866 127 138 294 226 482 253
87 12 291 13 382 0z m9593 -4 c249 -37 434 -147 559 -328 84 -122 121 -257
128 -467 5 -154 -5 -250 -48 -451 l-11 -49 -234 0 -234 0 0 163 c0 229 -22
361 -79 482 -51 109 -126 166 -245 185 -126 20 -240 -14 -310 -91 -65 -72 -81
-128 -80 -274 0 -107 4 -130 31 -207 18 -51 53 -120 86 -170 31 -45 223 -285
428 -533 391 -472 506 -629 599 -820 60 -124 96 -231 117 -350 21 -120 13
-369 -15 -470 -115 -419 -440 -645 -927 -645 -390 0 -676 141 -814 400 -100
187 -123 490 -61 795 11 55 20 103 20 108 0 4 106 7 235 7 l235 0 0 -122 c0
-246 30 -450 80 -548 31 -60 87 -118 144 -148 47 -25 60 -27 171 -27 111 0
124 2 177 28 122 60 168 158 168 356 0 193 -45 328 -171 512 -58 84 -121 162
-578 705 -101 120 -215 266 -254 324 -179 271 -256 523 -244 800 7 159 34 265
100 400 45 93 62 116 146 200 102 102 188 155 318 199 148 50 378 65 563 36z
m-23708 -882 c2 -478 7 -868 11 -868 5 0 163 389 352 865 l343 865 301 3 301
2 -9 -22 c-5 -13 -176 -430 -381 -928 -205 -498 -373 -910 -373 -915 0 -6 189
-479 421 -1052 232 -573 422 -1045 422 -1048 0 -3 -145 -4 -321 -3 l-322 3
-363 940 c-199 517 -366 939 -371 938 -4 -2 -9 -426 -11 -943 l-2 -940 -300 0
-300 0 0 1985 0 1985 300 0 300 0 2 -867z m5092 835 c3 -18 168 -909 366
-1981 198 -1071 360 -1950 360 -1952 0 -3 -137 -5 -305 -5 -168 0 -305 2 -305
5 0 11 -100 661 -105 683 l-5 22 -359 0 -359 0 -5 -22 c-3 -13 -27 -173 -53
-355 l-49 -333 -306 0 -307 0 14 73 c7 39 171 927 364 1972 192 1045 352 1906
355 1913 3 9 82 12 349 12 l344 0 6 -32z m10756 -1953 l0 -1985 -300 0 -300 0
0 1985 0 1985 300 0 300 0 0 -1985z m1814 1958 c14 -69 726 -3925 726 -3934 0
-5 -121 -9 -304 -9 l-303 0 -18 118 c-10 64 -34 223 -54 352 l-36 235 -363 3
c-199 1 -362 0 -362 -3 0 -2 -22 -157 -50 -343 -27 -186 -50 -344 -50 -350 0
-9 -79 -12 -305 -12 -268 0 -305 2 -305 15 0 17 718 3922 725 3943 3 9 82 12
349 12 l344 0 6 -27z m2716 -213 l0 -240 -315 0 -315 0 0 -1745 0 -1745 -305
0 -305 0 0 1745 0 1745 -317 2 -318 3 -3 225 c-1 123 0 230 2 237 4 10 193 13
941 13 l935 0 0 -240z m1880 0 l0 -240 -435 0 -435 0 0 -590 0 -590 335 0 335
0 0 -240 0 -240 -335 0 -335 0 0 -680 0 -680 445 0 445 0 0 -235 0 -235 -745
0 -745 0 0 1985 0 1985 735 0 735 0 0 -240z m-12965 -4894 c58 -26 109 -80
138 -145 16 -35 22 -73 25 -153 4 -104 3 -107 -21 -132 -30 -30 -49 -33 -72
-9 -15 14 -16 30 -10 113 6 78 4 104 -10 135 -42 102 -143 146 -260 114 -53
-15 -126 -90 -144 -149 -20 -66 -16 -192 9 -270 32 -99 83 -163 245 -307 214
-191 263 -266 287 -434 29 -205 -58 -396 -212 -468 -77 -36 -211 -37 -285 -3
-58 26 -125 89 -159 147 -87 148 -67 380 29 337 25 -11 35 -52 35 -139 0 -110
54 -208 137 -249 72 -36 170 -32 232 9 87 58 127 164 119 317 -9 162 -70 258
-273 435 -218 190 -285 307 -285 504 0 132 55 249 146 312 65 44 110 58 199
58 64 1 90 -4 130 -23z m4696 12 c123 -42 186 -142 196 -309 4 -67 2 -92 -11
-117 -22 -43 -63 -53 -88 -22 -16 20 -18 32 -11 84 17 132 -6 205 -79 253 -36
24 -52 28 -113 28 -62 0 -78 -4 -120 -30 -154 -96 -154 -372 1 -556 22 -25 97
-97 167 -159 71 -61 147 -135 169 -164 74 -93 108 -194 108 -326 0 -151 -44
-266 -133 -346 -93 -83 -254 -107 -372 -55 -59 26 -136 106 -172 178 -25 53
-28 68 -28 164 0 91 3 110 19 128 23 26 40 27 64 3 14 -14 20 -40 25 -108 7
-105 26 -166 67 -216 66 -80 188 -102 287 -53 144 72 185 304 90 505 -32 69
-99 141 -288 312 -143 129 -198 221 -220 373 -13 84 -1 180 31 252 35 79 124
157 210 184 39 12 164 10 201 -3z m3594 -12 c110 -51 165 -154 165 -312 0 -87
-2 -97 -25 -119 -28 -29 -47 -31 -70 -9 -14 14 -15 31 -10 113 6 78 4 104 -9
136 -43 102 -144 146 -259 114 -53 -14 -110 -69 -137 -131 -19 -45 -22 -65
-18 -157 3 -94 7 -114 36 -174 44 -95 76 -132 226 -263 145 -126 226 -222 256
-303 92 -243 11 -511 -179 -599 -78 -37 -211 -38 -286 -4 -92 43 -172 141
-200 247 -37 144 0 269 70 237 25 -12 35 -47 35 -125 0 -77 27 -160 68 -208
47 -54 101 -79 177 -79 103 0 171 46 217 145 20 43 23 66 23 170 0 106 -3 127
-25 180 -39 90 -92 154 -235 282 -71 63 -149 139 -173 167 -174 208 -159 536
29 660 63 42 107 55 194 55 64 1 90 -4 130 -23z m-17854 -10 c55 -20 121 -74
154 -126 64 -102 78 -285 33 -436 -29 -98 -93 -212 -168 -301 -30 -36 -60 -73
-67 -82 -9 -13 2 -54 61 -216 40 -110 96 -257 125 -326 28 -69 51 -138 51
-152 0 -48 -77 -66 -104 -24 -8 12 -42 112 -76 222 -85 277 -131 415 -138 415
-3 0 -31 -20 -61 -44 -31 -24 -89 -65 -130 -91 l-73 -47 6 -77 c3 -42 7 -142
8 -223 2 -161 -3 -178 -53 -178 -60 0 -59 -15 -59 640 0 327 -5 682 -10 788
-7 130 -6 200 0 213 10 18 39 28 155 55 81 18 284 12 346 -10z m933 5 c23 -19
21 -68 -4 -81 -13 -7 -75 -8 -185 -4 l-165 7 0 -210 c0 -115 -3 -305 -7 -421
l-6 -212 140 0 c153 0 171 -6 159 -54 -9 -35 -52 -46 -182 -46 l-114 0 0 -143
c0 -79 3 -212 7 -295 l6 -152 76 0 c42 0 143 5 225 10 166 11 196 4 196 -45 0
-51 -15 -54 -218 -53 -103 1 -228 -2 -279 -6 -131 -11 -124 -30 -112 314 5
151 9 525 7 830 -2 305 0 560 4 565 10 17 431 13 452 -4z m1851 -10 c97 -46
168 -136 218 -278 95 -265 98 -785 6 -1064 -54 -165 -142 -285 -247 -336 -50
-25 -68 -28 -152 -28 -81 0 -103 4 -145 25 -135 66 -218 229 -261 512 -24 158
-24 507 -1 635 32 173 80 297 153 399 84 119 163 164 289 164 67 0 89 -5 140
-29z m543 11 c13 -13 32 -86 66 -258 75 -377 172 -830 228 -1059 49 -200 52
-209 64 -179 15 37 92 383 129 579 91 490 178 901 192 917 31 35 93 10 93 -37
0 -13 -13 -79 -30 -148 -16 -68 -73 -322 -125 -562 -115 -527 -189 -845 -211
-903 -11 -29 -23 -44 -40 -48 -35 -9 -72 3 -88 29 -8 12 -58 222 -110 467
-111 519 -179 809 -235 1012 -23 79 -41 152 -41 161 0 43 74 63 108 29z m1463
-11 c24 -29 24 -36 -1 -61 -20 -20 -28 -20 -190 -14 l-170 7 0 -421 0 -422
133 0 c141 0 157 -5 157 -48 0 -37 -51 -52 -180 -52 l-110 0 0 -295 0 -295 83
0 c45 0 147 5 226 10 124 9 148 8 168 -5 29 -19 32 -70 4 -84 -11 -6 -91 -9
-192 -8 -96 1 -217 -2 -271 -7 -91 -7 -97 -7 -118 14 -19 19 -21 29 -15 64 4
22 9 396 11 831 2 434 5 794 8 800 2 6 82 10 221 10 216 0 217 0 236 -24z
m863 -10 c47 -23 78 -47 106 -82 61 -77 75 -132 75 -284 -1 -114 -4 -139 -27
-203 -36 -100 -97 -204 -175 -297 l-65 -77 48 -137 c26 -75 82 -225 126 -334
43 -109 78 -203 78 -209 0 -41 -73 -63 -102 -30 -9 9 -39 91 -68 182 -116 370
-142 450 -151 455 -4 3 -32 -14 -61 -37 -29 -24 -86 -63 -126 -88 l-73 -45 7
-226 c6 -203 5 -227 -11 -242 -19 -20 -66 -22 -83 -5 -9 9 -12 137 -12 515 0
277 -5 638 -11 803 -8 233 -8 304 1 315 7 8 31 20 54 26 114 32 157 38 277 36
120 -3 129 -4 193 -36z m569 21 c15 -17 16 -54 11 -398 -3 -208 -1 -575 4
-814 10 -466 10 -470 -38 -485 -12 -4 -30 -1 -43 8 l-22 14 1 836 c1 459 5
840 8 846 11 17 61 13 79 -7z m523 -4 c11 -13 49 -102 83 -198 35 -96 140
-373 233 -615 93 -242 192 -500 220 -573 28 -73 52 -131 54 -129 3 2 -2 208
-26 1117 -8 327 -8 377 6 397 17 27 65 31 84 8 10 -13 13 -186 12 -838 0 -452
-1 -825 -1 -829 -1 -4 -15 -15 -31 -23 -26 -13 -35 -14 -57 -3 -34 16 -42 31
-104 208 -29 80 -105 278 -171 440 -133 327 -216 539 -290 735 l-49 130 7
-743 c6 -701 5 -744 -11 -762 -22 -25 -47 -25 -73 -2 -19 17 -19 29 -14 840 4
816 5 824 25 843 29 26 79 25 103 -3z m1491 7 c127 -53 190 -176 200 -392 6
-130 0 -153 -38 -153 -42 0 -55 31 -62 141 -9 156 -41 242 -110 293 -43 32
-152 35 -212 6 -78 -38 -147 -143 -184 -282 -36 -132 -45 -227 -45 -453 1
-311 24 -476 86 -615 50 -112 119 -163 218 -163 115 0 186 75 229 245 18 71
41 234 41 294 l0 27 -139 -7 -140 -7 -17 26 c-13 21 -15 31 -6 50 7 14 15 25
19 25 5 0 86 2 181 4 l173 3 16 -24 c15 -22 15 -40 5 -161 -20 -236 -75 -402
-164 -494 -55 -56 -108 -81 -184 -86 -284 -19 -424 277 -424 894 0 566 145
842 443 844 48 0 92 -6 114 -15z m4361 -19 c73 -34 123 -85 161 -165 24 -52
26 -66 26 -196 0 -111 -4 -152 -19 -195 -42 -122 -116 -246 -208 -346 l-38
-42 51 -148 c29 -82 85 -232 125 -333 41 -101 74 -192 74 -202 0 -48 -78 -68
-104 -26 -8 12 -32 78 -54 147 -22 69 -66 207 -98 308 -31 100 -60 182 -64
182 -3 0 -41 -27 -85 -60 -43 -34 -100 -73 -127 -88 l-48 -27 7 -227 c5 -178
3 -231 -7 -243 -17 -21 -77 -20 -89 3 -5 9 -11 333 -15 742 -3 399 -9 757 -12
795 -7 93 -1 101 117 131 79 20 114 23 219 21 112 -3 131 -6 188 -31z m916 15
c21 -18 20 -54 -3 -75 -16 -15 -37 -16 -183 -10 l-165 7 -6 -279 c-4 -153 -7
-343 -7 -421 l0 -143 138 0 c141 0 162 -5 162 -40 0 -9 -9 -25 -21 -36 -18
-16 -40 -19 -150 -22 l-129 -4 0 -289 c0 -264 2 -290 17 -296 9 -4 114 -2 232
4 135 7 222 8 233 2 28 -15 34 -56 12 -81 -18 -19 -26 -20 -142 -15 -68 3
-192 1 -275 -4 -139 -9 -152 -9 -168 8 -17 17 -18 40 -8 468 6 248 9 624 5
836 -3 233 -2 389 4 395 15 15 435 11 454 -5z m2591 5 c135 -35 218 -128 244
-271 39 -210 -25 -409 -200 -622 -33 -39 -59 -76 -59 -81 0 -16 115 -330 185
-505 65 -161 67 -168 51 -192 -12 -19 -25 -25 -51 -25 -45 0 -49 8 -120 240
-76 252 -126 403 -135 413 -4 4 -45 -21 -92 -56 -46 -35 -104 -75 -128 -88
l-43 -24 6 -220 c6 -190 5 -224 -9 -243 -17 -24 -62 -30 -82 -10 -9 9 -12 115
-12 415 0 221 -5 583 -11 804 -12 445 -14 429 54 443 18 3 59 13 92 20 77 18
246 20 310 2z m981 -11 c18 -24 18 -36 0 -61 -13 -18 -28 -19 -188 -19 l-173
0 -3 -417 -2 -417 142 -3 143 -3 3 -31 c5 -51 -15 -59 -160 -63 l-128 -3 0
-296 0 -295 178 7 c97 4 200 9 229 13 46 5 54 3 77 -20 31 -31 32 -41 6 -67
-18 -18 -32 -19 -197 -17 -98 1 -221 -2 -273 -6 -106 -9 -133 0 -131 44 1 13
4 393 6 843 3 471 9 822 14 825 5 3 107 6 226 6 203 0 218 -1 231 -20z m1855
-4 c23 -28 23 -35 3 -55 -13 -13 -43 -16 -175 -16 l-160 0 1 -791 c1 -602 -1
-793 -10 -805 -19 -22 -66 -17 -85 9 -14 20 -15 97 -9 777 4 416 4 769 0 784
l-7 29 -145 -7 c-160 -7 -184 -2 -184 41 0 59 -5 58 390 58 l362 0 19 -24z
m714 0 c178 -84 268 -310 290 -731 7 -128 -7 -347 -30 -468 -32 -170 -92 -306
-173 -394 -70 -75 -140 -110 -236 -116 -269 -17 -408 197 -447 691 -40 498 85
902 313 1016 53 27 72 31 142 31 68 0 90 -4 141 -29z m1041 8 c179 -55 268
-257 220 -499 -24 -118 -96 -262 -185 -370 -39 -47 -70 -91 -71 -98 0 -18 119
-344 192 -525 57 -142 59 -150 43 -173 -24 -36 -79 -34 -99 5 -8 15 -54 154
-102 307 -76 246 -97 308 -110 323 -2 2 -23 -12 -47 -32 -24 -20 -81 -61 -127
-91 l-83 -56 1 -118 c1 -64 5 -161 8 -214 6 -82 4 -102 -10 -123 -23 -35 -75
-32 -93 5 -10 19 -13 173 -14 670 0 355 -4 706 -8 780 -9 159 -4 176 53 191
167 45 322 52 432 18z m607 9 c16 -12 17 -75 20 -846 l4 -834 -24 -16 c-32
-20 -74 -6 -83 28 -3 14 -2 174 3 355 8 331 2 1146 -9 1241 -5 40 -3 54 11 67
19 20 54 22 78 5z m524 -3 c12 -8 27 -32 34 -53 44 -137 547 -1451 561 -1467
5 -6 7 6 4 30 -4 22 -10 265 -16 540 -5 275 -13 597 -16 715 -6 196 -5 217 10
233 21 20 69 22 84 4 8 -9 12 -260 12 -836 1 -763 0 -824 -16 -842 -25 -27
-49 -32 -82 -15 -25 13 -35 34 -77 153 -26 76 -134 354 -240 618 -105 264
-211 534 -235 600 -24 66 -47 124 -51 129 -4 5 -6 -34 -3 -85 2 -52 6 -386 8
-742 5 -631 4 -649 -15 -668 -10 -10 -27 -19 -37 -19 -24 0 -53 32 -53 56 0
11 2 381 5 824 l5 805 22 18 c26 21 67 22 96 2z m1496 -1 c52 -17 119 -79 146
-133 41 -81 75 -304 57 -374 -8 -33 -40 -43 -70 -24 -20 14 -24 26 -29 110
-11 165 -43 257 -105 305 -27 20 -48 27 -99 30 -83 6 -139 -16 -192 -73 -118
-128 -170 -379 -158 -770 8 -258 39 -443 94 -548 21 -42 82 -106 117 -124 45
-24 133 -22 181 3 101 53 164 224 177 484 l3 55 -143 0 c-116 0 -144 3 -152
15 -14 22 -12 56 4 69 18 15 356 23 374 9 29 -24 8 -309 -34 -448 -38 -128
-118 -241 -199 -282 -61 -32 -165 -35 -236 -9 -100 38 -182 143 -227 292 -46
149 -57 265 -57 584 1 269 3 310 22 398 53 242 149 383 292 430 61 21 175 21
234 1z m2402 -13 c113 -53 191 -168 239 -352 75 -285 67 -738 -15 -990 -54
-164 -142 -285 -245 -335 -72 -35 -177 -43 -255 -20 -187 55 -287 268 -320
679 -40 499 84 902 313 1016 53 27 72 31 142 31 68 0 90 -4 141 -29z m683 12
c13 -11 42 -78 73 -163 73 -207 510 -1343 520 -1355 6 -5 7 3 4 20 -3 17 -9
253 -15 525 -5 272 -13 599 -16 725 -6 210 -5 232 10 248 21 20 69 22 85 3 8
-10 10 -238 9 -841 l-3 -828 -27 -20 c-26 -20 -30 -20 -62 -5 -27 14 -37 27
-51 70 -38 115 -142 385 -256 667 -119 291 -225 563 -269 691 -13 36 -27 69
-31 74 -4 5 -6 -76 -3 -180 2 -104 6 -438 8 -742 5 -537 4 -554 -15 -573 -24
-24 -51 -24 -73 0 -16 17 -17 79 -16 825 0 466 4 816 10 830 17 46 80 61 118
29z m1505 -2 c10 -7 17 -24 17 -36 0 -45 -20 -50 -214 -50 l-181 0 -3 -418 -2
-418 147 2 c130 1 148 -1 160 -17 16 -22 16 -26 0 -48 -17 -24 -84 -35 -209
-35 l-97 -1 6 -320 c6 -300 5 -321 -12 -340 -22 -24 -43 -25 -72 -5 l-21 15
-6 757 c-3 417 -9 790 -12 829 -4 54 -2 74 8 85 21 20 467 21 491 0z m280 7
c15 -12 17 -80 19 -845 2 -818 2 -833 -17 -848 -25 -18 -46 -19 -69 -2 -17 13
-18 56 -18 850 0 460 3 841 7 847 9 14 58 13 78 -2z m781 -14 c126 -31 245
-123 300 -233 73 -143 103 -342 85 -558 -34 -424 -242 -763 -534 -872 -76 -29
-195 -40 -212 -20 -8 10 -13 179 -18 579 -3 311 -10 677 -16 813 -9 260 -7
280 32 292 78 25 258 25 363 -1z m1122 1 c19 -25 18 -50 -3 -66 -12 -11 -57
-14 -187 -14 l-171 0 -3 -417 -2 -417 142 -3 143 -3 3 -31 c5 -51 -15 -59
-160 -63 l-128 -3 0 -294 0 -294 83 0 c45 0 149 5 231 10 l150 11 25 -26 c25
-24 25 -27 10 -53 l-15 -27 -109 2 c-61 1 -186 -3 -279 -8 -149 -9 -171 -8
-185 6 -14 13 -15 105 -13 852 2 460 7 842 12 847 5 7 85 11 225 11 202 0 218
-2 231 -20z m457 13 c10 -7 44 -87 77 -178 81 -222 514 -1349 518 -1346 2 2
-14 759 -30 1397 -3 117 5 139 52 139 60 0 57 43 56 -857 -1 -760 -2 -824 -18
-839 -9 -10 -31 -17 -47 -17 -29 0 -71 26 -71 45 0 21 -117 328 -285 748 -101
250 -204 513 -230 585 -25 71 -48 132 -51 134 -2 2 -1 -331 2 -740 l7 -744
-21 -19 c-25 -22 -67 -16 -80 12 -4 9 -6 383 -4 829 4 793 4 813 24 838 22 28
72 34 101 13z m2463 -13 c19 -26 18 -49 -5 -69 -17 -15 -36 -16 -183 -10
l-165 7 -6 -138 c-4 -76 -7 -266 -7 -422 l0 -283 140 0 c131 0 140 -1 150 -21
16 -28 -9 -64 -51 -73 -17 -3 -78 -6 -135 -6 l-104 0 0 -295 0 -295 83 0 c45
0 148 5 229 10 116 8 152 8 168 -2 30 -19 36 -55 14 -80 -18 -19 -26 -20 -144
-15 -69 4 -192 2 -274 -4 -131 -9 -151 -9 -165 5 -14 14 -15 103 -12 853 1
461 6 842 11 848 5 6 91 10 225 10 201 -1 218 -2 231 -20z m-31241 -12 c119
-62 174 -195 191 -460 6 -96 4 -116 -10 -138 -18 -28 -56 -34 -75 -11 -6 7
-15 76 -21 152 -19 281 -78 384 -218 384 -33 0 -67 -7 -91 -20 -148 -75 -241
-390 -241 -815 0 -352 54 -568 162 -648 94 -69 213 -62 293 17 54 54 84 133
92 240 6 95 22 126 61 126 41 0 52 -17 52 -80 -1 -133 -54 -265 -144 -356 -70
-70 -126 -94 -218 -94 -194 0 -309 139 -375 450 -26 124 -26 590 1 735 55 301
157 473 315 532 52 19 176 12 226 -14z m8360 7 c17 -19 18 -45 12 -470 -3
-247 -2 -452 2 -454 17 -11 259 -18 374 -11 l127 7 0 455 c0 294 4 461 10 474
15 27 75 26 90 -1 8 -14 8 -161 0 -513 -7 -275 -9 -635 -5 -817 7 -324 7 -325
-14 -344 -17 -16 -27 -18 -49 -10 l-27 9 -5 325 -5 325 -230 3 c-126 1 -239 0
-250 -2 -20 -5 -20 -12 -17 -315 3 -302 3 -310 -17 -330 -24 -24 -40 -26 -66
-7 -18 13 -18 45 -18 840 1 642 3 829 13 841 17 21 54 19 75 -5z m1323 -4 c13
-17 32 -93 61 -238 79 -399 193 -895 275 -1205 25 -94 46 -183 46 -196 0 -53
-66 -72 -91 -26 -5 11 -35 131 -65 267 -30 135 -57 249 -60 252 -3 3 -100 5
-215 5 -160 0 -212 -3 -218 -13 -4 -7 -29 -122 -55 -255 -27 -133 -52 -250
-57 -259 -11 -21 -68 -25 -87 -6 -18 18 -15 42 22 189 41 159 94 398 221 996
108 511 109 513 170 513 24 0 39 -7 53 -24z m13257 -3 c119 -62 175 -198 191
-464 6 -110 5 -118 -15 -138 -24 -24 -53 -27 -71 -6 -7 8 -16 71 -21 152 -17
279 -76 383 -217 383 -128 0 -216 -105 -276 -329 -44 -165 -59 -328 -53 -576
6 -250 25 -367 77 -472 104 -210 359 -203 439 12 12 32 24 94 28 139 6 95 22
126 61 126 40 0 52 -17 52 -75 -1 -137 -54 -270 -144 -361 -70 -70 -126 -94
-218 -94 -146 0 -251 83 -320 253 -54 132 -70 238 -75 497 -7 349 23 549 112
738 54 114 133 198 211 225 67 23 184 18 239 -10z m7351 -1 c113 -58 165 -176
185 -422 13 -152 6 -185 -36 -196 -49 -12 -58 11 -67 163 -15 276 -75 383
-216 383 -123 0 -202 -86 -265 -285 -51 -163 -62 -266 -62 -560 1 -239 3 -281
23 -369 37 -173 105 -276 201 -304 87 -27 165 -8 226 52 54 54 84 133 92 240
3 45 12 91 19 104 16 25 51 29 79 8 16 -11 17 -22 12 -92 -12 -143 -54 -242
-142 -330 -76 -77 -133 -99 -239 -92 -182 12 -286 138 -348 421 -26 119 -36
480 -18 654 34 335 156 581 316 636 67 23 184 18 240 -11z m-17178 -1528 c40
-28 55 -71 48 -137 -3 -32 -15 -78 -25 -102 -24 -54 -97 -135 -123 -135 -28 0
-34 29 -13 64 31 52 54 100 61 129 5 23 3 27 -14 27 -31 0 -82 48 -82 77 0 29
17 63 39 80 23 17 82 16 109 -3z m18583 -19 c85 -44 46 -165 -53 -165 -72 0
-113 80 -72 138 29 42 77 52 125 27z"/>
<path d="M15221 9460 c-144 -30 -212 -117 -258 -332 -17 -77 -18 -163 -18
-1218 0 -919 3 -1149 14 -1210 46 -255 145 -347 360 -338 180 7 260 92 308
331 14 72 17 206 20 1102 5 1067 0 1246 -37 1389 -36 143 -100 231 -189 260
-61 21 -146 27 -200 16z"/>
<path d="M8497 9048 c-7 -36 -277 -1933 -277 -1942 0 -3 131 -6 290 -6 270 0
290 1 290 18 -1 9 -63 453 -138 986 -85 599 -141 971 -148 973 -7 2 -14 -11
-17 -29z"/>
<path d="M21070 9074 c0 -12 -271 -1919 -276 -1946 l-6 -28 291 0 c226 0 291
3 291 13 1 6 -61 452 -137 990 -101 719 -141 977 -150 977 -7 0 -13 -3 -13 -6z"/>
<path d="M3255 4704 c-11 -2 -48 -11 -81 -20 l-62 -16 -7 -151 c-8 -180 -3
-832 7 -842 11 -12 130 76 221 164 192 185 279 353 280 541 1 205 -91 316
-267 325 -39 2 -80 2 -91 -1z"/>
<path d="M6052 4679 c-113 -56 -201 -229 -249 -489 -23 -127 -22 -440 2 -594
49 -321 171 -472 356 -442 205 33 311 294 312 766 0 212 -11 315 -48 457 -41
156 -96 246 -179 294 -64 36 -131 39 -194 8z"/>
<path d="M8870 4703 c-14 -2 -48 -11 -76 -18 -47 -13 -52 -18 -57 -47 -21
-120 -18 -968 3 -968 23 0 147 97 231 180 183 181 269 353 269 539 0 227 -146
351 -370 314z"/>
<path d="M15820 4704 c-14 -3 -48 -12 -76 -20 l-52 -14 -6 -97 c-14 -238 -12
-869 3 -892 13 -21 151 81 254 188 174 181 247 333 247 516 0 203 -92 313
-268 320 -42 2 -88 1 -102 -1z"/>
<path d="M19353 4695 c-109 -24 -100 2 -108 -292 -8 -259 -2 -719 9 -731 11
-11 151 93 231 173 198 196 287 384 272 576 -18 225 -166 326 -404 274z"/>
<path d="M22922 4679 c-113 -56 -202 -230 -248 -484 -24 -133 -24 -442 0 -599
42 -270 135 -421 272 -442 257 -38 399 240 397 776 -1 205 -12 309 -48 447
-41 156 -96 246 -179 294 -64 36 -131 39 -194 8z"/>
<path d="M23923 4695 c-108 -24 -100 -4 -108 -251 -8 -239 -3 -760 8 -771 12
-11 144 86 226 166 220 217 313 438 270 643 -39 182 -182 259 -396 213z"/>
<path d="M28992 4679 c-113 -56 -202 -230 -248 -484 -21 -118 -24 -438 -5
-573 35 -241 106 -391 214 -449 48 -26 170 -24 223 4 157 83 238 343 237 753
-1 205 -12 310 -48 447 -41 156 -96 246 -179 294 -64 36 -131 39 -194 8z"/>
<path d="M32225 4682 l-30 -7 -3 -480 c-2 -264 0 -603 4 -754 l6 -273 40 5
c106 14 254 128 343 262 118 179 186 464 171 715 -15 258 -105 428 -264 503
-52 24 -79 30 -150 33 -48 1 -100 0 -117 -4z"/>
<path d="M14901 4618 c-1 -4 -22 -103 -47 -220 -56 -261 -144 -681 -144 -685
0 -2 88 -3 196 -3 l197 0 -6 33 c-10 57 -177 821 -186 852 -5 17 -9 27 -10 23z"/>
</g>
</svg>
